<?xml version="1.0" encoding="utf-8"?>
<!-- Generator: Adobe Illustrator 23.0.3, SVG Export Plug-In . SVG Version: 6.00 Build 0)  -->
<svg version="1.1" id="Layer_1" xmlns="http://www.w3.org/2000/svg" xmlns:xlink="http://www.w3.org/1999/xlink" x="0px" y="0px"
	 viewBox="0 0 456.03 94.17" style="enable-background:new 0 0 456.03 94.17;" xml:space="preserve">
<style type="text/css">
	.st0{fill:#FFFFFF;}
</style>
<g>
	<path class="st0" d="M416.85,69.9c-0.28-0.57-1.02-0.74-1.53-0.36c-1.44,1.07-2.73,2.03-4.03,2.97c-4.9,3.56-10.45,4.01-16.17,3.17
		c-5.76-0.84-10.65-6.67-10.88-12.67c-0.04-0.93-0.01-1.86-0.01-3.32c-1.06,0.64-1.75,0.98-2.34,1.43
		c-4.16,3.17-8.31,6.35-12.45,9.55c-5.97,4.61-11.42,4.79-17.61,0.56c-2.01-1.38-2.24-1.36-3.69,0.76
		c-3.51,5.16-7.81,9.21-14.19,10.49c-7.04,1.41-13.46-2.37-14.78-8.8c-0.69-3.37,0.32-6.49,1.85-9.41c1.6-3.05,3.39-6.01,5.27-9.31
		c-1.08-0.13-1.98-0.32-2.87-0.33c-7.61-0.05-15.23-0.06-22.84-0.08c-3.8-0.01-4.08,0.36-3.26,4.16c0.77,3.59,1.5,7.17,0.7,10.88
		c-1.49,6.92-5.88,11.33-12.16,14.03c-2.54,1.09-5.09,0.4-7.35-1.05c-2-1.28-3.92-2.69-5.83-4.1c-1.33-0.99-2.45-0.92-3.56,0.33
		c-1.03,1.17-2.09,2.33-3.21,3.42c-5.56,5.39-13.27,4.04-16.77-2.9c-2.49-4.94-2.36-10.09-1.35-15.33c0.43-2.25,0.89-4.5,1.39-7.06
		c-1.03,0.12-1.83,0.1-2.56,0.33c-6.92,2.2-13.8,4.53-20.75,6.64c-3.03,0.92-6.18,1.51-9.31,2.07c-1.92,0.34-3.2,1.2-4.02,2.99
		c-1.84,4.04-3.89,7.98-7.51,10.76c-5.39,4.14-11.24,6.39-18.02,3.7c-7.76-3.07-11.48-10.8-9.04-18.75c0.93-3.02,2.03-6,3.14-9.22
		H150.5c0.9,1.55,1.67,2.86,2.42,4.18c5.3,9.32,2.59,20.34-6.13,26.23c-8.39,5.67-25.92,1.75-26.83-12.76
		c-0.23-3.65-0.69-7.38-0.17-10.95c1.02-7.01,6.48-12.03,13.81-13.04c4.29-0.59,8.65-0.77,12.99-0.89
		c12.7-0.34,25.41-0.49,38.1-0.87c4.21-0.13,8.29-0.64,12-3.26c4.04-2.84,9.62-2.18,12.99,1.43c2.58,2.77,4.74,5.86,5.22,9.78
		c0.24,1.95,1.44,1.51,2.67,1.34c9.27-1.24,18.08-4.26,26.96-6.99c3.44-1.06,6.85-2.18,10.31-3.18c3.17-0.91,4.83,0.39,4.43,3.66
		c-0.9,7.27-2.04,14.52-2.92,21.79c-0.17,1.41,0.1,3.02,0.65,4.33c0.34,0.8,1.6,1.63,2.47,1.65c0.82,0.02,2.09-0.86,2.66-1.64
		c0.02-0.03,0.04-0.06,0.06-0.09c2.11-3.54,3.82-7.09,5.82-10.69c1.53-2.75,3.95-2.88,5.61-0.18c0.95,1.55,1.5,3.34,2.36,4.95
		c0.73,1.37,1.5,2.77,2.53,3.91c2.79,3.1,6.45,2.96,9.11-0.28c3.99-4.89,4.46-10.33,2.33-16.1c-0.56-1.53-1.31-2.98-1.94-4.49
		c-1.45-3.46-0.87-4.87,2.78-5.51c3.06-0.54,6.2-0.8,9.3-0.82c10.67-0.07,21.34,0.06,32.01,0.02c1.88-0.01,3.76-0.5,5.64-0.74
		c1.66-0.21,2.11-1.2,1.91-2.74c-0.44-3.36-0.94-6.72-1.19-10.1c-0.47-6.19-0.18-12.36,1.44-18.39c1.14-4.2,3.51-7.63,7.06-10.15
		c4.9-3.49,11.09-1.85,13.43,3.69c2.05,4.85,1.74,10,1.8,15.09c0.12,9.48-2.44,18.37-5.89,27.08c-0.95,2.39-1.66,4.88-2.36,7.37
		c-0.28,1.02-0.43,2.17-0.27,3.2c0.78,5.09,4.39,6.78,8.69,4.01c7.2-4.63,14.35-9.35,21.46-14.1c2.52-1.68,4.93-3.52,7.3-5.42
		c7.91-6.34,16.6-9.48,26.73-6.92c1.98,0.5,3.65,1.42,3.95,3.58c0.13,0.96-0.12,2.39-0.76,2.92c-0.71,0.58-2.22,0.78-3.12,0.44
		c-2.91-1.08-5.81-1.17-8.56,0c-4.55,1.95-9.05,4.03-13.4,6.38c-5.16,2.79-6.16,7.59-4.4,13.22c1.22,3.9,4.79,5.35,9.74,4.35
		c7.1-1.43,12.21-7.17,12.84-14.45c0.11-1.29,0.13-2.58,0.24-3.87c0.18-2.25,1.29-3.35,3.46-3.5c2.24-0.16,3.81,0.88,4.1,3.05
		c0.51,3.9,0.81,7.83,1.25,11.74c0.24,2.09,0.44,4.2,0.93,6.23c0.7,2.87,2.28,3.49,4.6,1.69c3.05-2.37,5.84-5.08,8.82-7.55
		c4.29-3.54,8.62-7.02,13.01-10.42c0.51-0.39,1.05-0.61,1.93-0.58c0.43,0.02,0.78,0.33,0.86,0.75c0.14,0.74-0.05,1.42-0.4,2.06
		c-2.53,3.17-5.05,6.41-7.98,9.19c-3.76,4.05-8.09,7.05-12.26,10.42c-2.32,1.88-5.13,2.75-8.13,2.87c-2.56,0.1-4.45-1.03-5.64-3.29
		C418.24,72.71,417.55,71.31,416.85,69.9z M126.29,69.02c0,0.81-0.05,1.63,0.01,2.44c0.48,6.58,3.27,9.63,9.65,10.05
		c4.75,0.31,9.45-0.25,11.64-6.51c1.73-4.95,0.93-10.5-2.22-14.7c-4.89-6.52-12.62-6.35-16.6-0.52
		C126.86,62.57,126.07,65.67,126.29,69.02z M192.86,77.26c0.09,0.01,0.18,0.01,0.27,0c4.2-0.27,7.82-1.76,9.87-4.9
		c1.47-2.23,1.62-2.55,2.79-4.52c1.98-3,0.4-3.45-2.04-4.74c-2.27-1.2-4.36-2.72-6.09-4.61c-4.37-4.78-8.63-3.74-10.35,1.19
		c-1.48,3.71-1.66,3.23-2.72,8.12c-0.83,2.76,0.87,7.1,3.45,8.37C189.87,76.93,190.59,77.07,192.86,77.26z M344.98,62.86
		c0.09-0.31,0.21-1.01,0.24-1.29c0.19-1.49,0.1-2.52-0.27-3.57c-1.83-5.24-5.37-5.92-9.91-2.7c-4.88,3.46-7.98,8.43-9.26,13.79
		c-0.64,2.69,0.25,5.47,2.19,6.8c2.03,1.4,6.61,1.09,8.54-0.48c2.49-1.99,1.36-0.46,5.82-6.03
		C343.49,67.77,344.52,64.4,344.98,62.86z M356.53,24.14c-0.01-0.29-0.03-0.3-0.03-0.46c-0.13-4.91-0.74-8.16-2.03-11.12
		c-1.06-2.41-2.12-3.23-4-1.53c-0.11,0.1-0.22,0.22-0.31,0.34c-2.26,2.92-2.84,5.66-3.35,9.21c-0.01,0.06,0,0.11,0,0.17
		c-0.51,6.77-0.05,13.54,0.74,20.31c0.13,2.43,0.47,4.51,0.92,7.1c0.13,0.41,0.33,0.7,0.53,0.88c0.22,0.19,0.51,0.16,0.77,0.03
		c0.31-0.15,0.53-0.41,0.63-0.67c0.69-1.84,1.31-3.7,1.89-5.58C354.16,36.74,356.78,30.72,356.53,24.14z M199.85,50.81
		c0,0.63,1.14,1.6,1.75,2.13c1.57,1.37,3.23,2.66,4.93,3.87c0.38,0.27,0.89,0.36,1.4,0.46c0.32,0.06,0.53-0.12,0.74-0.36
		c0.41-0.45,0.34-1.35,0.21-1.9c-0.74-3.05-3.14-4.81-5.59-6.37C201.8,47.69,199.45,48.34,199.85,50.81z"/>
	<path class="st0" d="M43.92,48.85c0.69-0.53,1.25-1.08,1.78-1.56c1.87-1.71,3.51-3.1,5.51-4.56c3.29-2.41,6.94-3.6,11.02-2.77
		c2.96,0.6,4.8,2.4,5.61,5.26c0.42,1.5,0.66,3.05,1.09,4.55c0.14,0.49,0.67,1.24,1,1.23c0.53-0.02,1.19-0.45,1.54-0.91
		c0.99-1.29,1.74-2.76,2.78-4.01c3.44-4.12,7.92-6.27,13.29-6.47c6.06-0.23,10.8,4.74,10.56,10.8c-0.2,5.08-0.65,10.15-0.97,15.23
		c-0.12,1.96-0.23,3.93-0.29,5.9c-0.11,3.31,1.09,6.11,3.47,8.39c1.96,1.88,3.98,3.7,5.92,5.6c1.09,1.06,2.14,2.25,1.18,3.92
		c-0.87,1.5-2.34,1.42-3.79,1.21c-7.14-1.04-11.74-5.48-13.3-13.71c-0.76-4.02-0.65-8.23-0.72-12.36
		c-0.07-4.68,0.14-9.37,0.16-14.06c0.02-3.53-2.48-5.18-5.75-3.8c-3.91,1.65-6.73,4.54-8.8,8.17c-1.04,1.82-1.86,3.77-2.87,5.62
		c-0.61,1.12-1.26,2.28-2.13,3.2c-1.95,2.05-4.63,1.37-5.29-1.37c-0.7-2.9-1.11-5.86-1.68-8.79c-0.96-4.98-3.94-6.39-8.44-3.98
		c-7.43,3.98-10.92,10.4-11.75,18.6c-0.43,4.25-1.17,8.46-1.85,12.68c-0.16,0.99-0.53,1.97-0.97,2.87
		c-1.04,2.15-2.44,2.81-4.41,2.23c-1.74-0.51-2.88-2.27-2.64-4.32c0.69-5.93,1.45-11.85,2.14-17.78c0.41-3.49,0.72-6.99,1.13-11
		c-1.63,0.85-2.9,1.41-4.08,2.14c-7.71,4.74-15.49,9.3-24.42,11.42c-0.59,0.14-1.33,0.21-1.99,0.21c-0.75-0.01-1.29-0.05-1.99-0.35
		c-0.46-0.2-0.42-0.57-0.45-1.02c-0.07-0.95,0.58-1.75,1.24-2.33c0.45-0.39,0.77-0.56,1.21-0.71c9.65-3.34,18.11-8.95,26.85-14.03
		c1.52-0.89,3.03-1.81,4.61-2.58c2.85-1.39,4.76-0.88,5.87,2.18C43.43,48.11,43.56,48.39,43.92,48.85z"/>
</g>
</svg>
